<?xml version="1.0" encoding="UTF-8" standalone="no"?>
<!-- Created with Inkscape (http://www.inkscape.org/) -->

<svg
   xmlns:dc="http://purl.org/dc/elements/1.1/"
   xmlns:cc="http://creativecommons.org/ns#"
   xmlns:rdf="http://www.w3.org/1999/02/22-rdf-syntax-ns#"
   xmlns:svg="http://www.w3.org/2000/svg"
   xmlns="http://www.w3.org/2000/svg"
   xmlns:sodipodi="http://sodipodi.sourceforge.net/DTD/sodipodi-0.dtd"
   xmlns:inkscape="http://www.inkscape.org/namespaces/inkscape"
   width="234.97015mm"
   height="234.97015mm"
   viewBox="0 0 832.57141 832.57141"
   id="svg2"
   version="1.1"
   inkscape:version="0.91 r13725"
   sodipodi:docname="default_profile.svg">
  <defs
     id="defs4" />
  <sodipodi:namedview
     id="base"
     pagecolor="#ffffff"
     bordercolor="#666666"
     borderopacity="1.0"
     inkscape:pageopacity="0.0"
     inkscape:pageshadow="2"
     inkscape:zoom="0.35"
     inkscape:cx="-1392.9999"
     inkscape:cy="1468.0187"
     inkscape:document-units="px"
     inkscape:current-layer="layer1"
     showgrid="false"
     fit-margin-top="0"
     fit-margin-left="0"
     fit-margin-right="0"
     fit-margin-bottom="0"
     inkscape:window-width="3200"
     inkscape:window-height="1671"
     inkscape:window-x="0"
     inkscape:window-y="55"
     inkscape:window-maximized="1" />
  <metadata
     id="metadata7">
    <rdf:RDF>
      <cc:Work
         rdf:about="">
        <dc:format>image/svg+xml</dc:format>
        <dc:type
           rdf:resource="http://purl.org/dc/dcmitype/StillImage" />
        <dc:title></dc:title>
      </cc:Work>
    </rdf:RDF>
  </metadata>
  <g
     inkscape:label="Calque 1"
     inkscape:groupmode="layer"
     id="layer1"
     transform="translate(-290.85704,-226.07652)">
    <g
       id="g4149"
       transform="matrix(0.81305804,0,0,0.81305804,1868.6543,783.30751)">
      <path
         style="fill:#f2f2f2"
         d="m -1940.5715,-173.35205 0,-512 512,0 512,0 0,512 0,512 -512,0 -512,0 0,-512 z"
         id="path4165"
         inkscape:connector-curvature="0" />
      <path
         style="fill:#e8e8e8"
         d="m -1924.4519,337.29215 c -2.9296,-3.53 -6.6516,-45.03802 -5.6173,-62.6442 0.8769,-14.92582 3.1796,-32.57267 5.0889,-38.99834 8.4801,-28.53949 39.0876,-57.38196 89.9088,-84.72403 43.7658,-23.54625 107.9511,-47.75518 162.5,-61.29057 6.875,-1.70592 14.1206,-3.52521 16.1013,-4.04287 2.7119,-0.70875 4.7964,-2.48515 8.4401,-7.1927 10.4716,-13.52882 27.8531,-32.8842 40.9373,-45.58613 12.1357,-11.7813 31.5928,-27.55027 40.4485,-32.78142 l 3.0728,-1.81516 0,-19.0843 0,-19.08431 -4.6951,-6.45009 c -12.0386,-16.53834 -24.316,-41.14863 -31.6911,-63.52487 -2.6614,-8.07496 -8.602,-35.02881 -8.6097,-39.06465 0,-1.99226 -0.4786,-2.12984 -6.9025,-2 -6.3143,0.12764 -7.2244,-0.12213 -10.75,-2.95025 -15.9584,-12.80149 -29.3837,-49.53556 -32.3115,-88.41031 -2.1289,-28.26704 3.0678,-53.40638 12.1488,-58.77065 1.5461,-0.91331 2.8111,-2.44585 2.8111,-3.40564 0,-0.95979 -1.3869,-7.94793 -3.0819,-15.52921 -8.9927,-40.22017 -10.292,-77.6007 -3.8164,-109.7945 8.2521,-41.02573 31.7331,-76.4563 63.703,-96.12183 6.0642,-3.73028 6.4296,-4.18993 9.5827,-12.05364 5.0884,-12.6901 9.3259,-19.03837 19.6102,-29.37815 11.3441,-11.40527 23.1875,-19.4714 42.5024,-28.94693 15.2339,-7.47345 35.4517,-15.99945 37.9398,-15.99945 2.6843,0 1.7341,2.95629 -3.4335,10.68246 -4.6787,6.99527 -8.943,17.71422 -7.5867,19.07049 1.1057,1.10569 10.9698,-2.661 19.5804,-7.47692 10.8167,-6.04978 26.933,-21.74492 31.6019,-30.77603 l 3.1019,-6 4.3981,0.28549 c 6.3111,0.40967 28.6982,6.35493 40.3981,10.72838 23.3934,8.74454 38.4447,18.14147 53.5,33.40156 11.4463,11.60202 18.4421,22.11496 23.591,35.45149 2.7674,7.16813 3.128,7.61666 7.409,9.21647 8.501,3.17683 22.3388,10.79624 30.2202,16.6399 35.5443,26.3545 55.6072,69.57722 57.4541,123.77671 0.8238,24.17695 -1.0077,44.0391 -7.354,79.75123 l -2.7103,15.25122 3.0831,3.24878 c 6.0793,6.40616 8.7792,14.92767 10.3361,32.62307 2.5222,28.66754 -5.486,69.94861 -18.3567,94.6257 -7.7778,14.9124 -19.1538,23.87988 -26.2133,20.66336 -1.3133,-0.59837 -2.5832,-0.76741 -2.8219,-0.37565 -0.2388,0.39176 -1.635,6.78729 -3.1025,14.21229 -7.0919,35.88061 -16.5134,59.35025 -34.447,85.81008 l -8.0878,11.933 0,19.08042 0,19.08042 4.75,3.23804 c 25.6789,17.50516 52.8467,43.02294 73.6469,69.17424 6.4815,8.14891 12.3062,14.95801 12.9438,15.13132 0.6376,0.17332 11.5093,3.32082 24.1593,6.99445 113.3209,32.90904 191.86267,70.58839 231.74457,111.17635 22.13983,22.53181 28.90553,38.80998 31.82133,76.56117 1.0871,14.07606 -0.2126,46.72451 -2.1527,54.07051 l -0.9903,3.75 -496.339,0 c -416.5171,0 -496.52,-0.218 -497.4643,-1.3558 z"
         id="path4163"
         inkscape:connector-curvature="0" />
      <path
         style="fill:#dcdcdc"
         d="m -1924.4671,335.39795 c -0.5778,-1.7875 -1.7186,-8.425 -2.5351,-14.75 -4.8011,-37.19308 -1.9666,-76.1024 6.905,-94.78338 15.7717,-33.21081 60.4216,-65.85855 131.5257,-96.17094 36.6275,-15.61467 83.486,-31.33263 119.5,-40.08444 12.7683,-3.10286 16.404,-4.3678 18,-6.26273 1.1,-1.30599 6.9385,-8.40993 12.9744,-15.78652 20.5293,-25.0892 46.4637,-49.52725 68.1757,-64.24212 l 7.8499,-5.32009 -0.01,-19.03577 -0.01,-19.03578 -6.6335,-9.88911 c -19.6723,-29.32719 -30.9913,-57.48315 -36.9098,-91.81252 -1.0358,-6.00787 -2.2969,-11.33706 -2.8025,-11.84264 -0.5589,-0.55899 -1.7193,-0.49103 -2.9608,0.1734 -3.2598,1.74461 -9.1505,1.26976 -12.8857,-1.03872 -18.0941,-11.18278 -35.1993,-67.34884 -32.9002,-108.03006 1.0577,-18.71592 5.1582,-31.75392 11.7242,-37.27885 3.6606,-3.08025 3.8836,0.11196 -1.9612,-28.07269 -4.3879,-21.15925 -6.1502,-38.12177 -6.1502,-59.19653 0,-43.52275 10.1266,-77.10184 32.0102,-106.14362 7.6161,-10.10732 20.7896,-22.56501 30.7058,-29.03744 11.8193,-7.71457 12.284,-8.08494 12.284,-9.79043 0,-2.9797 8.8468,-20.27183 13.3956,-26.18339 10.8284,-14.07231 26.9455,-25.86638 52.1044,-38.12869 14.9645,-7.29361 33.2075,-15.00694 35.4933,-15.00694 1.8675,0 1.026,2.20187 -3.3882,8.86552 -5.379,8.12007 -7.6051,13.3176 -7.6051,17.7566 0,4.32724 1.2589,4.33507 11,0.0684 18.077,-7.9179 33.7386,-21.61982 41.0808,-35.94051 2.3793,-4.64087 3.4221,-5.75 5.406,-5.75 3.77,0 31.9855,7.44844 41.2935,10.90083 26.2359,9.73103 48.7375,25.12369 62.1601,42.52193 5.5326,7.17129 12.4777,19.5119 15.6435,27.79691 1.425,3.72918 3.1141,6.7868 3.7535,6.79471 2.1821,0.027 21.8663,9.96744 28.5224,14.40366 19.4308,12.95051 35.298,31.699 45.583,53.86041 11.4862,24.7497 16.6293,49.73885 16.6084,80.69607 -0.016,23.7893 -2.0653,41.63646 -9.7312,84.74929 -0.467,2.62667 -0.013,3.86176 2.4509,6.66803 3.3368,3.8004 6.2915,10.93076 8.3324,20.10816 1.7422,7.83451 1.7393,36.05481 0,48.5 -4.6965,33.50653 -17.5333,64.78301 -30.4204,74.11836 -4.2387,3.07057 -7.9997,3.60339 -12.135,1.7192 -1.4032,-0.63934 -2.7922,-0.92152 -3.0867,-0.62706 -0.2945,0.29446 -2.0703,8.13006 -3.9464,17.41244 -7.3979,36.60385 -16.3143,58.73102 -34.1116,84.65242 l -7.3982,10.77536 0,19.92374 0,19.92375 3.25,2.37741 c 34.7307,25.4059 52.9598,42.41566 74.7225,69.72437 6.7937,8.525 13.2916,15.80034 14.4398,16.16742 1.1482,0.36708 9.2877,2.7605 18.0877,5.31872 63.2661,18.39188 109.2744,35.28044 151,55.42854 39.3358,18.99411 68.59392,38.72785 88.59543,59.75493 20.45457,21.50343 27.36157,40.01193 29.44757,78.91084 0.7351,13.70668 -0.883,43.57435 -2.6637,49.16955 l -1.0344,3.25 -495.8449,0 -495.8449,0 -1.0507,-3.25 z"
         id="path4161"
         inkscape:connector-curvature="0" />
      <path
         style="fill:#d3d3d3"
         d="m -1924.5118,333.39795 c -5.363,-26.01877 -5.1352,-73.79913 0.454,-95.25 8.2898,-31.81493 42.1742,-62.33292 102.9863,-92.75462 43.5314,-21.77692 102.8348,-43.26056 152.8203,-55.3617 l 15.8204,-3.83 7.6148,-9.52684 c 24.3365,-30.44721 47.3653,-53.09441 71.5996,-70.41327 12.634,-9.02879 11.6449,-11.63878 11.6449,30.7275 0,40.71145 0.2462,42.59229 6.5882,50.33194 4.921,6.00531 11.6805,10.89394 35.341,25.5593 38.3619,23.77771 48.5197,31.36022 58.1576,43.41299 12.46,15.58204 18.9152,29.09698 25.0061,52.3547 1.3262,5.06385 1.0391,5.51709 4.4339,-7 2.736,-10.08849 12.616,-29.73926 19.6376,-39.05836 12.5536,-16.66099 25.4479,-27.74231 48.8356,-41.96896 20.1903,-12.28168 33.4537,-21.64856 41.9601,-29.63299 7.3134,-6.8647 12.1644,-13.54855 10.8135,-14.89939 -0.3512,-0.35126 -7.0815,0.58659 -14.9561,2.08411 -11.8948,2.26205 -18.0008,2.80698 -36.0849,3.22046 -39.3927,0.90068 -66.2863,-4.72068 -99.6163,-20.82204 -24.3245,-11.75087 -43.7073,-25.55408 -62.8238,-44.7391 -17.7106,-17.77413 -37.0317,-45.20298 -36.1154,-51.27059 0.2676,-1.77231 1.8467,-0.4796 9.2214,7.54911 31.1218,33.88175 67.0055,51.20632 110.1015,53.15674 18.4345,0.83431 33.07,-1.22657 51.5,-7.25192 25.2368,-8.25069 43.9395,-20.23131 65.8721,-42.19645 10.6944,-10.71019 14.5929,-14.04505 15.2347,-13.03203 0.4744,0.74878 0.8695,9.29451 0.8779,18.99053 l 0.015,17.62911 12.0885,8.72366 c 25.0413,18.07106 45.1785,37.48111 66.3217,63.92707 6.4742,8.09789 12.2929,14.8923 12.9305,15.09868 0.6376,0.20638 10.6093,3.12207 22.1593,6.47933 100.0529,29.08249 172.6342,61.28677 216.49999,96.06095 10.53154,8.34877 26.25587,24.46558 31.66182,32.45208 11.82868,17.4752 16.07168,34.15606 17.05148,67.03631 0.5044,16.92764 -0.7338,42.15689 -2.3417,47.71369 -0.4814,1.6636 -24.97841,1.75 -496.36809,1.75 l -495.8617,0 -1.0821,-5.25 z m 306.9838,-540.13545 c -3.3821,-8.89574 -22.4776,-83.67426 -23.9556,-93.81117 -0.5055,-3.46686 -2.2703,-12.37838 -3.9218,-19.80338 -12.2074,-54.88421 -10.5107,-100.34766 5.1899,-139.06099 11.2624,-27.77003 30.7522,-51.22518 54.5714,-65.67423 5.7526,-3.48965 6.6102,-4.43704 8.1697,-9.0249 9.9679,-29.32496 34.3455,-49.89198 83.7291,-70.64079 18.2367,-7.66227 18.8747,-7.5333 12.0674,2.43942 -6.2848,9.20716 -9.6926,19.73161 -6.94,21.43281 1.832,1.13222 17.3212,-5.74277 25.9659,-11.52514 10.5485,-7.0558 21.412,-18.25428 25.871,-26.66875 1.8098,-3.41523 3.6508,-6.43216 4.0912,-6.7043 1.1965,-0.73949 21.0539,3.92595 33.9435,7.97493 26.7381,8.39923 46.5128,19.81095 62.5735,36.11032 10.6361,10.79413 17.5528,21.84833 25.4317,40.64458 0.7096,1.69275 2.4155,3.23542 4.307,3.8948 1.7227,0.60051 7.459,3.22567 12.7474,5.83369 37.1902,18.34071 63.0401,54.63778 71.9939,101.08998 4.3585,22.61184 5.0986,41.47678 2.6273,66.96796 -2.036,21.00105 -3.2778,29.07623 -11.1358,72.41061 -3.4616,19.08995 -16.9714,64.49659 -23.75,79.82409 -2.9025,6.563 -4.8284,7.18061 -9.1238,2.92591 -3.2903,-3.25898 -4.9319,-6.89514 -7.2262,-16.00522 -1.4767,-5.86388 -1.7032,-12.94853 -1.7344,-54.24478 -0.033,-43.5831 -0.1889,-47.95354 -1.8929,-53 -1.0213,-3.025 -2.5963,-6.45422 -3.5,-7.6205 -0.9036,-1.16627 -4.1479,-5.21627 -7.2095,-9 -13.2227,-16.34116 -23.2271,-34.9023 -30.2717,-56.1626 -8.1939,-24.72881 -11.112,-45.27363 -10.5148,-74.02865 l 0.3727,-17.94822 -3.442,5.11102 c -7.4035,10.99365 -18.9003,19.62205 -31.5776,23.6991 -6.6383,2.13488 -9.2738,2.29175 -51,3.03535 -56.9893,1.01561 -73.5236,2.50871 -94.2303,8.50927 -29.1481,8.44679 -56.936,30.96491 -69.8752,56.62395 -14.0669,27.89506 -20.4698,64.19138 -22.3652,126.78128 -1.2923,42.67585 -1.5606,46.29364 -4.0248,54.25991 -2.5302,8.17996 -7.4115,13.74009 -12.0626,13.74009 -2.2324,0 -3.2215,-0.60526 -3.8984,-2.38545 z"
         id="path4159"
         inkscape:connector-curvature="0" />
      <path
         style="fill:#c6c6c6"
         d="m -1923.5715,337.31085 c 0,-0.7355 -0.6734,-5.798 -1.4965,-11.25 -5.2266,-34.62205 -3.369,-77.23803 4.1897,-96.1194 6.3027,-15.74379 23.5388,-35.42273 44.7774,-51.12362 44.314,-32.75956 126.6193,-67.9419 204.0004,-87.20221 18.8149,-4.68309 20.1805,-5.18039 22.529,-8.2042 17.7488,-22.85285 42.0622,-49.00282 58.0097,-62.39153 11.5232,-9.67431 27.1578,-20.6054 28.1068,-19.65119 0.4263,0.42859 0.912,17.87925 1.0793,38.77925 l 0.3042,38 2.7405,4.6618 c 4.369,7.43223 14.562,15.71949 34.3758,27.94879 38.164,23.55525 45.2694,28.54686 55.9108,39.27788 15.4205,15.55033 24.8818,32.65656 30.1663,54.54107 3.415,14.14252 3.4254,14.1657 4.5441,10.07046 0.5259,-1.925 2.048,-7.55 3.3824,-12.5 5.1385,-19.06074 18.2962,-40.53246 34.014,-55.50683 10.3617,-9.87159 18.6074,-15.93534 35.8544,-26.36661 19.4257,-11.74894 34.0268,-22.25143 42.1919,-30.34831 6.3912,-6.33787 11.4701,-14.4613 9.9757,-15.95573 -0.3614,-0.3614 -5.7194,0.31996 -11.9065,1.51413 -20.1683,3.89262 -26.9616,4.54859 -47.2494,4.5624 -35.5604,0.0242 -63.7455,-6.48802 -95.0646,-21.96488 -35.0654,-17.3281 -68.5485,-46.98661 -88.8049,-78.66113 -7.4896,-11.71141 -6.1395,-11.54945 6.5925,0.79083 6.7732,6.56487 16.5814,14.9771 21.796,18.69384 45.6955,32.57005 104.7337,37.35954 154.3833,12.52439 18.9608,-9.48431 32.1833,-19.41344 48.9134,-36.73013 5.7844,-5.98721 10.7797,-10.62321 11.1007,-10.30223 0.321,0.32097 0.612,8.49609 0.6468,18.16693 l 0.063,17.58333 8.95,5.90855 c 25.8328,17.05394 52.2684,42.82433 76.3364,74.41547 2.6499,3.47821 5.7786,6.70937 6.9526,7.18035 1.1741,0.47098 10.9096,3.39036 21.6346,6.4875 64.2785,18.56217 110.4734,35.85875 154,57.66156 50.71433,25.40317 80.44205,48.50231 97.21732,75.54012 8.11772,13.08379 12.03202,28.46089 13.85652,54.43362 0.9668,13.76279 0.1894,37.34423 -1.7183,52.12283 l -0.6132,4.75 -495.87114,0 c -413.2632,0 -495.8712,-0.2228 -495.8712,-1.3371 z m 305.4627,-548.4129 c -11.8033,-40.41663 -27.8222,-108.90268 -31.9859,-136.75 -3.3992,-22.73408 -3.4249,-55.791 -0.058,-75.08284 6.7776,-38.83849 24.6253,-71.00537 51.3061,-92.46898 4.1082,-3.30486 10.2994,-7.63649 13.7583,-9.62585 5.2382,-3.01275 6.479,-4.25173 7.4271,-7.41622 2.1576,-7.20159 9.9856,-21.4225 15.3895,-27.9579 10.5302,-12.73499 25.1267,-23.18543 48.2005,-34.50923 16.2071,-7.95389 34.5342,-15.53588 35.7447,-14.78772 0.4132,0.25537 -1.1247,3.22679 -3.4175,6.60315 -4.9147,7.23731 -7.8272,14.40248 -7.8272,19.25632 0,4.5531 1.9584,4.57458 12.1308,0.13308 16.6184,-7.25591 34.1233,-22.0827 40.7139,-34.48512 1.8397,-3.46179 4.038,-6.56018 4.8852,-6.88529 2.1462,-0.82357 29.7926,6.15973 41.2701,10.42455 40.0932,14.8979 66.0601,38.40267 78.0403,70.64068 1.7865,4.80754 2.7251,6.03065 5.3147,6.92599 7.4893,2.5894 25.2771,12.30445 32.5157,17.75887 16.2184,12.22096 30.7267,30.24636 39.5241,49.1056 18.0196,38.62888 21.3489,81.32565 11.0626,141.87091 -1.3549,7.975 -2.9669,17.65 -3.5822,21.5 -2.2023,13.78043 -12.007,51.80925 -18.2367,70.7331 -7.8593,23.87454 -10.3485,29.7669 -12.5746,29.7669 -2.2689,0 -6.5311,-4.65642 -8.3804,-9.15548 -3.8706,-9.41693 -4.1835,-14.08041 -4.1835,-62.34452 0,-56.85201 0.5205,-53.84388 -12.0273,-69.51453 -18.6777,-23.32606 -30.8915,-49.29926 -36.9965,-78.6744 -3.7011,-17.80886 -4.7778,-31.19967 -4.2912,-53.37083 0.2407,-10.96713 0.3615,-19.94024 0.2685,-19.94024 -0.093,0 -1.7937,2.63178 -3.7791,5.84841 -4.9648,8.04362 -15.7393,17.93775 -23.902,21.94888 -11.0229,5.4167 -16.0145,5.94676 -61.7724,6.55965 -54.8644,0.73487 -75.8838,2.85652 -96.4204,9.73245 -27.7532,9.29213 -53.7131,31.38424 -66.3642,56.4765 -4.3051,8.53874 -9.9354,25.08072 -12.7466,37.45005 -6.0442,26.59429 -8.277,48.99659 -9.4207,94.52047 -0.8889,35.38216 -1.6184,42.90669 -5.0381,51.96359 -1.7422,4.61429 -6.9546,9.5 -10.1352,9.5 -2.4656,0 -2.8971,-0.56231 -4.4121,-5.75 z"
         id="path4157"
         inkscape:connector-curvature="0" />
      <path
         style="fill:#b2b2b2"
         d="m -1922.6899,337.89795 c -0.065,-0.4125 -0.088,-1.0188 -0.051,-1.3473 0.037,-0.3285 -0.5701,-4.8285 -1.3493,-10 -5.3613,-35.57935 -3.4111,-78.35127 4.4225,-96.99591 9.3159,-22.17249 33.0921,-45.00165 69.5961,-66.82389 44.7759,-26.76726 113.4012,-53.82442 177.9898,-70.17673 l 20.5254,-5.19654 7.6776,-9.60481 c 24.7833,-31.00467 50.1452,-55.7715 73.1694,-71.45275 2.9492,-2.00864 5.7617,-3.65207 6.25,-3.65207 0.5008,0 0.8878,15.84663 0.8878,36.35078 0,24.48356 0.371,37.4605 1.1365,39.75 3.3111,9.90342 14.335,19.43966 42.0443,36.37051 27.4795,16.7904 42.5574,27.29914 50.3511,35.09285 16.1631,16.16312 27.3968,38.31561 32.0319,63.16596 0.8997,4.82344 2.0057,9.43854 2.4577,10.25577 0.9299,1.68093 1.201,0.79353 3.037,-9.94169 3.972,-23.22374 16.894,-46.93091 35.6192,-65.34808 9.8376,-9.67571 19.0138,-16.58943 33.4665,-25.21495 27.4377,-16.37515 46.6368,-31.37377 53.029,-41.42693 l 2.8268,-4.44578 0,-37.30422 c 0,-24.3545 0.3493,-37.30422 1.0061,-37.30422 1.5224,0 20.0452,13.48185 30.3637,22.10022 12.8444,10.72816 32.0424,30.85314 46.1302,48.35754 10.2495,12.73532 12.5835,15.09155 16,16.15283 2.2,0.68339 13.45,4.02454 25,7.42478 73.2642,21.56845 130.3123,44.34729 174.0561,69.49915 38.96533,22.40435 67.1799,49.24385 76.8914,73.14405 6.4147,15.7867 9.506,46.94757 7.45,75.0974 -0.712,9.74823 -1.284,19.18653 -1.271,20.97403 l 0.024,3.25 -495.3251,0 c -272.4287,0 -495.3783,-0.3375 -495.4434,-0.75 z m 307.3383,-544.5 c -0.5637,-0.6875 -3.2956,-9.575 -6.0709,-19.75 -12.7348,-46.68901 -24.8781,-99.66192 -28.1961,-123 -7.6771,-53.99936 0.8426,-101.00937 24.8126,-136.91109 7.2961,-10.92788 24.4924,-28.26743 34.2345,-34.51967 4.125,-2.64733 8.538,-5.5459 9.8067,-6.44128 1.3261,-0.93594 3.6993,-5.10323 5.5828,-9.80343 5.0302,-12.55291 9.3069,-19.00559 19.1105,-28.83372 10.2494,-10.27505 21.6115,-18.14028 38.9668,-26.97412 14.4572,-7.35866 36.9159,-16.72133 37.3308,-15.56254 0.1636,0.45716 -1.4972,3.60791 -3.6907,7.00167 -4.5669,7.06601 -7.3911,14.71578 -6.9265,18.76165 0.289,2.51584 0.655,2.7561 3.8196,2.50672 5.5824,-0.4399 22.7182,-9.44613 31.5,-16.55581 8.9478,-7.24404 13.8923,-12.8268 19.4566,-21.96787 4.4242,-7.26836 2.9328,-7.12174 22.4474,-2.20681 51.3414,12.93082 84.1112,37.65099 99.0715,74.73539 l 3.298,8.17544 7.3633,3.12258 c 16.754,7.10503 27.856,14.39337 40.1952,26.38772 22.901,22.26105 35.9801,49.61707 42.353,88.58517 2.5807,15.78046 2.3163,48.32107 -0.5688,70 -6.0039,45.11314 -17.4717,93.91516 -30.0131,127.72203 -4.6893,12.64081 -5.7688,14.77797 -7.464,14.77797 -2.1379,0 -5.6095,-4.41627 -7.6098,-9.68077 -3.6674,-9.65184 -4.2605,-19.63909 -3.5227,-59.31923 0.9787,-52.63524 0.4401,-55.72617 -12.4866,-71.65889 -22.0905,-27.22765 -35.6188,-60.52094 -40.1097,-98.71089 -0.7076,-6.01737 -0.9911,-18.80049 -0.7265,-32.75 0.2388,-12.58412 0.1826,-22.87915 -0.1248,-22.87784 -0.3075,10e-4 -1.8887,2.5888 -3.514,5.75 -4.1925,8.15485 -16.331,19.9971 -24.6096,24.00908 -11.3517,5.50122 -15.5993,5.97391 -59.8855,6.66416 -22.2475,0.34675 -46.0975,1.07632 -53,1.62127 -43.1528,3.40689 -67.5546,13.36752 -91.6189,37.39818 -14.6247,14.60419 -21.0064,24.76236 -27.7182,44.12082 -10.0809,29.07552 -14.2693,60.63913 -15.7158,118.43411 -1.0814,43.20379 -2.2626,49.83847 -10.0378,56.38088 -3.5156,2.95815 -4.2857,3.14187 -5.7393,1.36912 z"
         id="path4155"
         inkscape:connector-curvature="0" />
      <path
         style="fill:#a5a5a5"
         d="m -1614.9114,-207.10205 c -1.8369,-3.00859 -19.0199,-70.38462 -26.6665,-104.56225 -6.7204,-30.03761 -8.963,-45.4942 -9.6757,-66.68775 -1.7371,-51.65921 11.7442,-93.20293 40.1478,-123.7191 8.2013,-8.81124 20.7856,-18.85434 28.5641,-22.79598 4.233,-2.14506 4.9916,-3.04168 6.5195,-7.70621 8.0125,-24.4613 25.9359,-42.6282 58.4054,-59.19876 11.1949,-5.71321 30.3388,-14.11355 34.6032,-15.18383 2.5038,-0.62843 2.4722,-0.51018 -1.5138,5.65695 -6.1707,9.54722 -8.6472,19.37157 -5.5345,21.95492 1.2317,1.02223 2.8589,0.76077 8.839,-1.42029 19.1052,-6.96805 38.9011,-23.25868 46.5045,-38.26985 1.1651,-2.30018 2.5187,-4.42962 3.0081,-4.73208 1.3132,-0.81158 27.0255,5.72248 39.1388,9.94604 13.9194,4.85325 24.5632,10.01183 35.5691,17.23867 20.7786,13.644 33.2539,29.2485 44.264,55.36698 1.6216,3.84693 2.6122,4.84838 5.8109,5.87475 7.0057,2.24796 23.4824,11.20943 31.2313,16.98633 40.9094,30.49877 61.1023,86.59698 55.0738,153.00146 -2.3753,26.1641 -9.3681,65.55075 -16.5114,93 -8.2916,31.86146 -19.338,64 -21.9976,64 -2.0907,0 -6.1064,-6.66965 -8.1282,-13.5 -1.5904,-5.37323 -1.7803,-11.01419 -1.8174,-54 -0.05,-57.88054 -0.011,-57.63967 -11.4991,-71 -16.3257,-18.98612 -30.5719,-48.0101 -36.8133,-75 -5.0113,-21.6709 -6.6462,-46.25447 -4.8137,-72.38222 0.9958,-14.19678 0.558,-14.57611 -4.8798,-4.22804 -9.3609,17.81386 -26.5739,29.45844 -45.3719,30.69409 -4.1892,0.27537 -27.1917,0.9271 -51.1167,1.44829 -46.3059,1.00874 -59.1233,2.0938 -76.6896,6.49221 -17.8404,4.46701 -31.699,11.10802 -44.5472,21.34691 -8.9907,7.16486 -22.1608,21.00757 -27.1777,28.56584 -18.4519,27.79898 -28.4596,80.82148 -28.6067,151.56292 -0.061,29.51051 -2.2011,41.91233 -8.3573,48.43989 -3.2868,3.48493 -5.0437,4.31313 -5.9614,2.81011 z"
         id="path4153"
         inkscape:connector-curvature="0" />
      <path
         style="fill:#9d9d9d"
         d="m -1618.4363,-222.10205 c -9.4006,-33.8262 -24.2285,-95.16897 -27.7376,-114.75 -5.6419,-31.48201 -5.94,-65.69055 -0.7975,-91.5 8.0869,-40.58697 30.5842,-74.81393 61.8409,-94.0833 l 7.941,-4.89553 2.7781,-7.61997 c 8.5403,-23.4252 25.241,-39.75942 57.3664,-56.10772 9.8537,-5.01447 32.6371,-15.29348 33.8979,-15.29348 0.1843,0 -1.6466,3.9375 -4.0685,8.75 -6.3432,12.60425 -6.2779,21.49766 0.1441,19.6194 21.8321,-6.38529 44.7374,-24.0446 53.4221,-41.18683 2.5172,-4.96852 0.8251,-4.9546 20.0779,-0.16526 48.8572,12.15376 79.839,34.40623 95.5542,68.63117 2.488,5.41834 5.0686,10.89584 5.7347,12.17222 0.8043,1.54123 3.9637,3.43702 9.4062,5.64427 32.2836,13.09271 58.1306,40.80453 71.2526,76.39329 14.2449,38.63405 14.721,84.19153 1.5589,149.14174 -6.3331,31.25145 -15.0286,62.88289 -23.8405,86.72436 -2.2914,6.19944 -4.6919,11.2726 -5.3345,11.27368 -1.6195,0.003 -4.7875,-5.44182 -6.9813,-11.99804 -1.6832,-5.03021 -1.8417,-9.55729 -1.856,-53 -0.016,-50.11738 -0.3706,-54.84921 -4.7514,-63.5 -1.1141,-2.2 -4.014,-6.21618 -6.4442,-8.92484 -5.7263,-6.38234 -17.4458,-23.93145 -21.9353,-32.84646 -16.0962,-31.96276 -23.663,-73.03216 -20.309,-110.2287 0.6943,-7.7 1.3036,-15.08107 1.354,-16.40238 0.1848,-4.84564 -2.368,-3.12783 -5.9643,4.01347 -8.9446,17.76159 -20.5237,27.6747 -37.9441,32.48469 -4.9677,1.37164 -14.0866,1.79221 -53,2.44439 -25.85,0.43324 -51.275,1.29274 -56.5,1.91001 -20.8823,2.46695 -39.8591,7.44846 -52.5,13.78149 -17.9729,9.00431 -39.349,28.60902 -48.7763,44.73425 -17.5739,30.05958 -26.6658,81.57765 -26.7429,151.53408 -0.021,19.38722 -0.9753,29.33666 -3.5686,37.2194 -1.51,4.58983 -6.2167,10.7806 -8.1962,10.7806 -0.5399,0 -2.8263,-6.6375 -5.0808,-14.75 z"
         id="path4151"
         inkscape:connector-curvature="0" />
    </g>
    <path
       style="fill:#000000"
       d=""
       id="path4147"
       inkscape:connector-curvature="0" />
  </g>
</svg>
